<?xml version="1.0" encoding="UTF-8"?>
<svg id="Layer_1" data-name="Layer 1" xmlns="http://www.w3.org/2000/svg" viewBox="0 0 137.72 133.58">
  <defs>
    <style>
      .cls-1 {
        fill: #f9d8c1;
      }

      .cls-2 {
        stroke: #231f20;
        stroke-miterlimit: 10;
        stroke-width: .8px;
      }
    </style>
  </defs>
  <path class="cls-2" d="M77.97,55c11.8,11.02,26.31,18.68,39.55,27.82,8.3,5.73,14.75,10.64,7.51,21.22-6.42,9.38-12.95,5.71-20.89,.4-12.32-8.25-24.08-18.1-36.51-26.32l-2.08-.89c-.09,.27-.16,.36-.03,.63,.28,.59,1.72,2.35,2.23,3.01,8.38,11.01,18.73,20.91,27.96,31.21,5.33,8.46-4.42,22.21-14.16,19.41-4.53-1.3-10.69-9.56-13.87-13.34-6.28-7.45-11.89-15.41-18.03-22.93-.15-.18-.64-.88-.83-.77l1.73,6.08c1.67,6.59,5.21,13.35,6.87,19.84,1.47,5.75-1.67,9.15-6.6,11.41-6.33,2.9-11.92,1.33-14.61-5.26-3.31-8.07-4.24-17.1-6.8-25.37-1.75-5.65-6.54-13.81-10.8-17.92-3.48-3.36-5.59-5.19-8.39-9.33C1.43,60.96-5.43,42.53,7.78,29.87c3.76-3.6,8.35-4.73,10.36-10.07,2.28-6.07,3.54-9.73,8.75-14.05C38.17-3.6,51.06,1.7,63.85,3.82c6.62,1.09,16.26,2.58,22.85,1.88,3.38-.36,6.48-1.32,10.05-1.32,8.84-.01,14.66,3.83,11.24,13.25-2.82,7.76-10.54,12.05-18.57,11.7-2.36-.1-3.86-.83-5.96-1.12-.22-.03-1.58-.08-1.09,.43,3.6,2.61,7.61,3.93,11.74,5.42,8.34,3.01,16.72,5.97,25.07,8.92,7.82,2.77,19.79,6,17.96,16.65-2.37,13.79-10.46,13.55-21.67,9.41-10.02-3.71-19.74-9.16-29.93-12.79-1.72-.62-4.51-1.67-6.23-1.89-.37-.05-.76-.04-1.11,.09l-.22,.56h0Zm-11.86-20.62c-9.97,6.35-27.18,7.92-37.62,1.97-.94-.53-3.55-2.09-3.38-3.22,.46-3.01,3.78,.47,5.14,1.21,10.31,5.62,27.89,3.34,36.99-3.94,3.44-2.76,4.37-5.69,9.23-6.23,8.36-.93,16.71,4.88,24.29-2.29,2.48-2.34,6.4-8.9,3.44-11.91-3.71-3.77-14.22-.71-19.02-.5-8.12,.37-17.73-1.21-25.77-2.63-9.94-1.75-19.63-5.58-28.84,.73-5.37,3.68-6.85,7.81-9.02,13.58-3.03,8.07-11.47,9.11-15.54,17-5.59,10.82,1.96,26.35,8.42,35.32,2.97,4.13,6.4,6.33,9.39,10.09,3.67,4.6,7.16,10.39,8.95,15.99,2.64,8.28,3.51,17.04,6.75,25.23,.95,2.39,1.52,3.91,4.35,4.51,3.76,.8,11.79-2.91,9.94-7.86-2.96-9.75-7.71-19.84-9.82-29.78-.43-1.99-1.06-3.58,.66-5.15,1.03-.94,2.37-1.21,3.49-.22,6.66,10.46,14.62,20.3,22.63,29.77,2.16,2.55,7.97,10.01,10.48,11.3,7.11,3.66,15.06-7.63,11.34-13.14-8.74-9.58-18.04-18.78-26.13-28.93-1.19-1.5-5.2-6.35-5.09-8.06,.3-4.57,4.99-4.43,8-2.42,8.9,6.49,17.97,12.74,26.92,19.17,5.08,3.64,12.87,10.66,18.84,11.99,3.01,.67,4.32-.86,6.07-3.04,6.38-7.96,2.29-11.34-4.38-16.04-11.62-8.19-24.34-15.04-35.49-23.9-1.65-1.31-5.58-4.39-6.56-6.05-1.5-2.52,.08-5.91,3.07-6.24,3.17-.35,9.88,2.42,13.06,3.66,8.76,3.42,17.38,8.09,26.1,11.33,8.44,3.14,14.42,4.46,16.39-6.22,.89-4.79-1.43-6.83-5.35-8.9-6.62-3.51-14.77-5.56-21.84-8.11-3.78-1.36-7.51-2.96-11.3-4.34-4.13-1.51-8.09-2.38-11.96-4.62-2.93-1.69-5.57-4.01-8.2-6.11-.85-.24-2.57,2.17-3.18,2.75-1.67,1.58-3.5,3.05-5.44,4.29h-.01Z"/>
  <path class="cls-1" d="M66.14,34.37c1.94-1.24,3.77-2.71,5.44-4.29,.61-.58,2.33-3,3.18-2.75,2.64,2.1,5.27,4.42,8.2,6.11,3.87,2.24,7.83,3.12,11.96,4.62,3.79,1.38,7.52,2.97,11.3,4.34,7.07,2.55,15.22,4.61,21.84,8.11,3.93,2.08,6.24,4.12,5.35,8.9-1.97,10.68-7.96,9.36-16.39,6.22-8.72-3.24-17.34-7.91-26.1-11.33-3.18-1.24-9.9-4.01-13.06-3.66-2.99,.33-4.57,3.72-3.07,6.24,.99,1.66,4.91,4.74,6.56,6.05,11.15,8.87,23.87,15.71,35.49,23.9,6.67,4.7,10.75,8.08,4.38,16.04-1.74,2.18-3.06,3.71-6.07,3.04-5.98-1.33-13.77-8.34-18.84-11.99-8.95-6.43-18.02-12.68-26.92-19.17-3.01-2.01-7.7-2.15-8,2.42-.11,1.7,3.9,6.56,5.09,8.06,8.09,10.15,17.39,19.35,26.13,28.93,3.72,5.51-4.22,16.79-11.34,13.14-2.51-1.29-8.32-8.75-10.48-11.3-8.01-9.47-15.97-19.31-22.63-29.77-1.12-.99-2.46-.71-3.49,.22-1.72,1.57-1.09,3.16-.66,5.15,2.12,9.94,6.86,20.03,9.82,29.78,1.86,4.95-6.17,8.66-9.94,7.86-2.83-.6-3.4-2.11-4.35-4.51-3.24-8.18-4.11-16.95-6.75-25.23-1.79-5.6-5.28-11.39-8.95-15.99-2.99-3.76-6.41-5.96-9.39-10.09C8,64.49,.46,48.97,6.04,38.15c4.07-7.89,12.51-8.93,15.54-17,2.17-5.77,3.64-9.91,9.02-13.58,9.21-6.31,18.9-2.48,28.84-.73,8.04,1.42,17.65,3,25.77,2.63,4.8-.22,15.3-3.28,19.02,.5,2.96,3.01-.96,9.56-3.44,11.91-7.58,7.16-15.93,1.36-24.29,2.29-4.86,.54-5.79,3.48-9.23,6.23-9.11,7.28-26.68,9.56-36.99,3.94-1.37-.74-4.69-4.22-5.14-1.21-.17,1.12,2.44,2.68,3.38,3.22,10.44,5.95,27.65,4.38,37.62-1.97h.01Z"/>
</svg>