<?xml version="1.0" encoding="UTF-8"?>
<svg id="Layer_1" data-name="Layer 1" xmlns="http://www.w3.org/2000/svg" viewBox="0 0 114.32 118.09">
  <defs>
    <style>
      .cls-1 {
        fill: #f9d8c1;
      }
    </style>
  </defs>
  <path d="M104.11,49.11c2.93,3.96,5.23,10.09,2.46,14.72-.37,.61-1.69,1.48-1.57,2.04,3.32,2.06,6.06,4.58,7.73,8.15,1.95,4.17,2.51,10.14-.7,13.87-.68,.79-2.17,1.38-2.62,2.05-1.25,1.84-1.95,4.99-3.37,7.05-2.66,3.88-11.83,4.36-16.02,7.42-7.97,5.81-16.26,9.72-25.91,12.07-14.95,3.63-28.64,1.8-37.09-12.47-2.06-3.47-2.77-6.99-6.04-9.71-2.52-2.09-5.76-3.02-8.51-4.96C-.59,80.17-3.36,63.39,4.01,49.58c3.1-5.8,16.42-19.29,22.35-22.09,3.15-1.49,6.39-1.64,9.62-2.6C41.72,18.09,52.38,.32,62.1,0c5.25-.17,13.26,5.18,15.58,9.89,1.29,2.6,1.19,5.19,.77,8,2.06,.28,3.95,.84,5.8,1.87,3.56,1.97,9.78,9.44,11.01,13.35,.94,3-.14,5.48-1.17,8.3,4.01,1.07,7.58,4.41,10.02,7.7h0ZM47.34,17.09c-2.35,2.89-4.62,5.9-6.66,9.01,.16,.4,4.51,.32,5.28,.38,5.14,.38,9.08,.61,13.44,3.73,.89,.64,1.66,1.49,2.47,2.22,.48,.15,1.53-1.06,1.9-1.43,3.64-3.63,10.75-11.39,10.64-16.59-.1-4.92-8.84-11.05-13.34-9.85-4.78,1.27-10.62,8.69-13.74,12.53h0Zm28.15,6.52c-4.33,2.44-7.57,7.98-11.23,11.35-.15,.44,.12,.79,.3,1.16,1.12,2.26,3.27,4.83,4.57,7.22,2.94,5.41,6.84,13.75-2.03,15.91-6.27,1.52-12.78-2.4-17.53-6.1-1.01,.22-1.78,5.35-1.7,6.46,.34,4.98,7.97,7.05,12.13,6.39,3.25-.51,5.08-2.42,7.45-4.45,5.75-4.92,12.03-10.47,17.45-15.73,.98-.95,2.13-1.92,2.98-2.97,1.59-1.97,3.82-5.75,3.23-8.29-.64-2.74-6.25-9.36-8.65-10.85-2.71-1.69-4.29-1.61-6.98-.09h0Zm10.87,24.99c-6.43,5.2-12.84,11.59-19.05,17.16-3.06,2.74-6.76,5.14-5.75,10.11,1.16,5.71,7.2,7.84,12.37,6.33,5.7-1.66,18.49-11.84,23.5-15.93,1.23-1.01,4.82-3.7,5.51-4.83,1.91-3.14-1.19-8.53-3.27-10.96-2.43-2.83-5.62-5.84-9.65-4.29-1.25,.48-2.61,1.57-3.66,2.41h0Zm7.35,47.3c-2.81,1.19-4.77,1.5-7.84,1.16-6.85-.77-12.52-4.19-10.15-11.87-.29-.46-2.1,.26-2.66,.34-5.2,.76-9.21-.48-12.46-4.78-2.6-3.45-2.82-7.5-1.01-11.41-.07-.2-2.97-.21-3.45-.28-3.25-.48-6.31-1.99-8.99-3.85-1.46,6.03-3.12,11.63-7.14,16.51-1.1,1.33-3.31,4.22-5.01,2.4-1.03-1.24,2.29-3.84,3.12-4.93,3.48-4.58,7.42-15.25,5.99-20.99-.65-2.58-2.21-4.41-3.07-6.55-1.29-3.22,4.11-2,4.25-2.93-1.24-1.68-5.32-6.64-4.5-8.72,.42-1.06,1.55-1.31,2.42-.57,.37,.32,.74,1.89,1.05,2.47,3.49,6.51,12.74,14.99,20.51,14.63,6.09-.28,5.18-4.29,3.35-8.48-2.17-4.98-8.18-14.86-13.15-17.03-5.59-2.44-21.63-2.25-27.19,.57-4.58,2.33-15.34,13.2-18.36,17.56-7.68,11.1-6.87,26.57,3.86,35.35,4.99,4.08,10.97,5,14.45,11.1,3.24,5.67,4.13,9.89,10.01,14.1,11.72,8.41,31.6,1.92,43.11-4.28,4.54-2.45,7.27-5.54,12.27-7.33,1.51-.54,8.78-2.3,9.28-3.45l1.57-3.59c-3.65,1.05-6.8,3.37-10.27,4.84h.02Zm-3.87-20.01c-4.52,3.26-11.42,6.28-11.58,12.54-.12,4.65,6.62,5.88,10.26,5.72,3.55-.15,8.15-3.27,11.44-4.85,2.17-1.04,7.59-2.79,8.89-4.44,2.04-2.59,.97-7.37-.55-9.99-1.51-2.61-6.05-6.77-9.23-5.54-2.72,1.05-6.7,4.76-9.23,6.58h0Z"/>
  <path class="cls-1" d="M102.42,94.66c-.5,1.15-7.77,2.91-9.28,3.45-5,1.78-7.72,4.88-12.27,7.33-11.51,6.2-31.39,12.69-43.11,4.28-5.88-4.22-6.77-8.43-10.01-14.1-3.48-6.09-9.47-7.02-14.45-11.1-10.73-8.78-11.53-24.25-3.86-35.35,3.01-4.36,13.78-15.23,18.36-17.56,5.56-2.82,21.6-3.01,27.19-.57,4.97,2.17,10.98,12.05,13.15,17.03,1.83,4.2,2.74,8.2-3.35,8.48-7.77,.36-17.02-8.12-20.51-14.63-.31-.58-.68-2.16-1.05-2.47-.87-.75-2-.49-2.42,.57-.82,2.07,3.26,7.03,4.5,8.72-.15,.93-5.54-.29-4.25,2.93,.86,2.15,2.43,3.96,3.07,6.55,1.44,5.74-2.5,16.41-5.99,20.99-.83,1.09-4.15,3.69-3.12,4.93,1.7,1.82,3.92-1.07,5.01-2.4,4.02-4.88,5.68-10.48,7.14-16.51,2.67,1.86,5.73,3.37,8.99,3.85,.48,.07,3.37,.09,3.45,.28-1.81,3.91-1.59,7.97,1.01,11.41,3.25,4.3,7.26,5.55,12.46,4.78,.55-.08,2.37-.8,2.66-.34-2.37,7.68,3.3,11.1,10.15,11.87,3.07,.35,5.03,.03,7.84-1.16,3.47-1.48,6.62-3.79,10.27-4.84l-1.57,3.59h-.02Zm-12.41-48.46c-1.25,.48-2.61,1.57-3.66,2.41-6.43,5.2-12.84,11.59-19.05,17.16-3.06,2.74-6.76,5.14-5.75,10.11,1.16,5.71,7.2,7.84,12.37,6.33,5.7-1.66,18.49-11.84,23.5-15.93,1.23-1.01,4.82-3.7,5.51-4.83,1.91-3.14-1.19-8.53-3.27-10.96-2.43-2.83-5.62-5.84-9.65-4.29h0Zm-7.55-22.49c-2.71-1.69-4.29-1.61-6.98-.09-4.33,2.44-7.57,7.98-11.23,11.35-.15,.44,.12,.79,.3,1.16,1.12,2.26,3.27,4.83,4.57,7.22,2.94,5.41,6.84,13.75-2.03,15.91-6.27,1.52-12.78-2.4-17.53-6.1-1.01,.22-1.78,5.35-1.7,6.46,.34,4.98,7.97,7.05,12.13,6.39,3.25-.51,5.08-2.42,7.45-4.45,5.75-4.92,12.03-10.47,17.45-15.73,.98-.95,2.13-1.92,2.98-2.97,1.59-1.97,3.82-5.75,3.23-8.29-.64-2.74-6.25-9.36-8.65-10.85h0ZM61.08,4.57c-4.78,1.27-10.62,8.69-13.74,12.53-2.35,2.89-4.62,5.9-6.66,9.01,.16,.4,4.51,.32,5.28,.38,5.14,.38,9.08,.61,13.44,3.73,.89,.64,1.66,1.49,2.47,2.22,.48,.15,1.53-1.06,1.9-1.43,3.64-3.63,10.75-11.39,10.64-16.59-.1-4.92-8.84-11.05-13.34-9.85h0Zm37.99,64.75c-2.72,1.05-6.7,4.76-9.23,6.58-4.52,3.26-11.42,6.28-11.58,12.54-.12,4.65,6.62,5.88,10.26,5.72,3.55-.15,8.15-3.27,11.44-4.85,2.17-1.04,7.59-2.79,8.89-4.44,2.04-2.59,.97-7.37-.55-9.99-1.51-2.61-6.05-6.77-9.23-5.54Z"/>
</svg>