<?xml version="1.0" encoding="UTF-8"?>
<svg id="Layer_2" data-name="Layer 2" xmlns="http://www.w3.org/2000/svg" viewBox="0 0 420.02 449.95">
  <defs>
    <style>
      .cls-1 {
        fill: #f9d8c1;
      }

      .cls-2 {
        fill: #f1592a;
      }

      .cls-3 {
        fill: #fff;
      }

      .cls-4 {
        fill: #fcb040;
      }

      .cls-5 {
        fill: #92278f;
      }

      .cls-6 {
        fill: #2d1034;
      }
    </style>
  </defs>
  <g>
    <circle class="cls-4" cx="219.7" cy="224.02" r="142.11"/>
    <circle class="cls-2" cx="219.7" cy="224.02" r="112.5"/>
    <circle class="cls-5" cx="219.7" cy="224.02" r="82.88"/>
    <circle class="cls-6" cx="219.7" cy="224.02" r="53.27"/>
    <circle class="cls-3" cx="219.7" cy="224.02" r="23.65"/>
  </g>
  <g>
    <path d="M201.96,118.86c-4.73-.7-10.5-3.33-11.79-8.41-.17-.67,.14-2.17-.33-2.47-3.68,.87-7.29,1.01-10.89-.29-4.2-1.52-8.67-5.23-9.03-9.99-.08-1.01,.54-2.43,.39-3.2-.41-2.12-2.08-4.76-2.53-7.14-.84-4.48,5.12-11.1,5.9-16.07,1.48-9.45,4.49-17.82,9.49-26.04,7.76-12.74,18.4-20.87,33.99-16.88,3.79,.97,6.69,2.89,10.8,2.51,3.16-.29,6.02-1.87,9.23-2.44,15.24-2.67,28.65,6.94,33.06,21.46,1.85,6.1,1.97,24.48-.18,30.47-1.14,3.18-3.26,5.51-4.81,8.38,.73,8.6,5.6,28.1-.84,34.97-3.49,3.72-12.65,5.54-17.47,3.9-2.67-.9-4.38-2.74-6.02-4.95-1.6,1.22-3.29,2.13-5.25,2.7-3.8,1.09-13.18,.23-16.7-1.61-2.7-1.41-3.66-3.85-4.89-6.49-3.49,2.01-8.22,2.18-12.15,1.59h0Zm60.88-16.97c-.37-3.59-.88-7.21-1.61-10.74-.38-.17-3.32,2.87-3.88,3.36-3.79,3.26-6.64,5.81-11.77,6.66-1.05,.17-2.16,.12-3.22,.17-.44,.23-.32,1.78-.32,2.28,0,4.98,.44,15.18,4.08,18.67,3.44,3.3,13.64,1.51,15.9-2.4,2.41-4.14,1.32-13.24,.83-18.01h0Zm-23.77,14.83c1.29-4.64-.28-10.66-.08-15.49-.2-.4-.63-.46-1-.59-2.32-.78-5.55-1.07-8.09-1.82-5.73-1.69-14.12-4.74-9.51-12.3,3.25-5.34,10.41-7.12,16.2-7.83,.54-.84-2.45-4.89-3.26-5.59-3.65-3.18-10.3,.63-12.7,3.94-1.87,2.58-1.82,5.14-2.06,8.16-.57,7.32-1.07,15.43-1.18,22.75-.02,1.33-.14,2.77,0,4.08,.26,2.45,1.33,6.56,3.47,7.9,2.31,1.44,10.7,2.13,13.37,1.51,3.01-.7,4.05-1.84,4.85-4.72h0Zm-24.59-9.68c.84-7.97,.86-16.75,1.3-24.83,.22-3.97,1.12-8.16-2.99-10.87-4.71-3.12-10.31-.44-12.82,4.14-2.77,5.04-4.56,20.8-5.19,27.04-.16,1.54-.76,5.84-.46,7.09,.84,3.47,6.67,5.04,9.75,5.27,3.61,.27,7.86,.15,9.56-3.67,.53-1.18,.72-2.86,.86-4.16h0Zm-37.47-27.39c1.11-2.74,2.24-4.3,4.58-6.17,5.23-4.17,11.46-5.71,15.1,1.18,.51,.11,1.26-1.62,1.59-2.06,3.04-4.09,6.64-5.99,11.83-5.26,4.15,.58,7.08,3.21,8.52,7.13,.19,.09,2.18-1.89,2.56-2.17,2.56-1.9,5.69-2.97,8.8-3.53-3.13-5.14-5.83-10.12-6.43-16.22-.16-1.67-.62-5.17,1.79-5.08,1.56,.14,1.06,4.2,1.24,5.52,.75,5.53,5.36,15.55,10.29,18.49,2.21,1.33,4.54,1.5,6.59,2.38,3.09,1.32-1.44,4.19-.91,4.92,2,.3,8.2,.9,9.06,2.89,.44,1.01-.16,1.96-1.27,2.05-.47,.04-1.81-.79-2.42-.98-6.86-2.07-19.01-1.55-24.1,4.03-3.99,4.37-.62,6.49,3.52,8.11,4.91,1.93,15.8,4.58,20.7,2.66,5.5-2.16,16.38-13.29,18.25-19.04,1.55-4.74,1.46-19.57,.55-24.63-2.35-12.87-13.5-22.93-26.89-21.59-6.22,.62-10.96,4.09-17.52,2.3-6.11-1.67-9.62-3.95-16.53-2.81-13.8,2.28-22.99,20.35-26.63,32.5-1.44,4.79-1.18,8.79-3.39,13.44-.67,1.41-4.44,7.6-4,8.73l1.39,3.53c1.78-3.22,2.36-6.97,3.72-10.36h-.01Zm16.37,11.08c.87-5.33,3.52-12.13-.65-16.54-3.11-3.27-8.57,.51-10.96,3.12-2.33,2.54-3.35,7.82-4.52,11.17-.77,2.2-3.29,7.12-3.05,9.14,.37,3.17,4.39,5.72,7.23,6.47,2.82,.75,8.79,.5,10.13-2.53,1.15-2.58,1.33-7.85,1.82-10.84h0Z"/>
    <path class="cls-1" d="M171.88,86.47c-.44-1.13,3.33-7.32,4-8.73,2.2-4.65,1.95-8.64,3.39-13.44,3.64-12.15,12.82-30.22,26.63-32.5,6.92-1.14,10.42,1.14,16.53,2.81,6.57,1.79,11.3-1.68,17.52-2.3,13.38-1.34,24.54,8.72,26.89,21.59,.92,5.06,1,19.89-.55,24.63-1.87,5.75-12.75,16.88-18.25,19.04-4.9,1.92-15.79-.73-20.7-2.66-4.13-1.62-7.5-3.74-3.52-8.11,5.08-5.57,17.24-6.1,24.1-4.03,.62,.19,1.94,1.01,2.42,.98,1.11-.08,1.71-1.03,1.27-2.05-.86-1.98-7.06-2.59-9.06-2.89-.53-.74,4-3.6,.91-4.92-2.06-.88-4.38-1.05-6.59-2.38-4.92-2.95-9.54-12.97-10.29-18.49-.18-1.32,.32-5.38-1.24-5.52-2.42-.08-1.95,3.42-1.79,5.08,.59,6.1,3.29,11.08,6.43,16.22-3.11,.56-6.24,1.62-8.8,3.53-.38,.28-2.37,2.26-2.56,2.17-1.44-3.92-4.37-6.56-8.52-7.13-5.18-.72-8.79,1.18-11.83,5.26-.32,.43-1.08,2.17-1.59,2.06-3.64-6.89-9.88-5.34-15.1-1.18-2.34,1.87-3.47,3.43-4.58,6.17-1.37,3.39-1.94,7.14-3.72,10.36l-1.39-3.53h.01Zm41.74,24.71c.53-1.18,.72-2.86,.86-4.16,.84-7.97,.86-16.75,1.3-24.83,.22-3.97,1.12-8.16-2.99-10.87-4.71-3.12-10.31-.44-12.82,4.14-2.77,5.04-4.56,20.8-5.19,27.04-.16,1.54-.76,5.84-.46,7.09,.84,3.47,6.67,5.04,9.75,5.27,3.61,.27,7.86,.15,9.56-3.67h0Zm20.6,10.24c3.01-.7,4.05-1.84,4.85-4.72,1.29-4.64-.28-10.66-.08-15.49-.2-.4-.63-.46-1-.59-2.32-.78-5.55-1.07-8.09-1.82-5.73-1.69-14.12-4.74-9.51-12.3,3.25-5.34,10.41-7.12,16.2-7.83,.54-.84-2.45-4.89-3.26-5.59-3.65-3.18-10.3,.63-12.7,3.94-1.87,2.58-1.82,5.14-2.06,8.16-.57,7.32-1.07,15.43-1.18,22.75-.02,1.33-.14,2.77,0,4.08,.26,2.45,1.33,6.56,3.47,7.9,2.31,1.44,10.7,2.13,13.37,1.51h0Zm27.79-1.54c2.41-4.14,1.32-13.24,.83-18.01-.37-3.59-.88-7.21-1.61-10.74-.38-.17-3.32,2.87-3.88,3.36-3.79,3.26-6.64,5.81-11.77,6.66-1.05,.17-2.16,.12-3.22,.17-.44,.23-.32,1.78-.32,2.28,0,4.98,.44,15.18,4.08,18.67,3.44,3.3,13.64,1.51,15.9-2.4h0Zm-70.45-18.35c1.15-2.58,1.33-7.85,1.82-10.84,.87-5.33,3.52-12.13-.65-16.54-3.11-3.27-8.57,.51-10.96,3.12-2.33,2.54-3.35,7.82-4.52,11.17-.77,2.2-3.29,7.12-3.05,9.14,.37,3.17,4.39,5.72,7.23,6.47,2.82,.75,8.79,.5,10.13-2.53Z"/>
  </g>
  <g>
    <path d="M136.38,223.23c8.56,8.2,4.9,14.48-2.89,21.28-9.29,8.12-19.98,15.02-29.27,23.33-1.54,1.38-5.31,4.55-6.11,6.2-.71,1.46,.82,1.04,1.75,.89,3.89-.6,9.13-3.02,12.74-4.71,12.87-6,24.54-14.06,37.06-20.53,5.02-2.6,9.27-4.41,14.43-.66,3.35,2.44,7.31,8.75,7.95,12.87,1.06,6.82-9.52,13.33-14.58,16.39-11.45,6.93-23.78,11.46-36.3,15.98,1.17,2.24,2.65,4.27,3.58,6.64,1.62,4.12,2.15,10.36-1.36,13.69-.44,.42-1.85,.98-1.88,1.47,2.44,2.61,4.3,5.58,4.92,9.13,.72,4.11-.17,9.27-3.69,11.92-.91,.69-2.55,.98-3.11,1.47-1.55,1.34-2.94,3.9-4.71,5.42-3.16,2.7-10.38,1.37-14.41,2.28-1.78,.4-3.54,1.5-5.39,2.08-13.68,4.36-36.87,5.31-47.01-6.66-4.95-5.85-4.82-10.18-6.59-16.9-1.28-4.86-6.53-7.82-9.47-11.91-9.42-13.07-4.55-29.23,6.51-39.7,4.91-4.65,8.52-4.27,14.51-5.67,7.79-1.82,16.31-5.1,22.97-9.59,5.28-3.55,9.02-8.25,13.6-12.58,7.6-7.19,16.62-14.96,24.97-21.24,8.12-6.1,13.34-9.01,21.8-.92h0Zm-75.37,46.52c3.26,.73,6.56,1.49,9.72,2.62,3.96,1.41,5.36,1.92,8.07,5.34,3.78,4.78,6.64,10.89,9.87,16.08,1.5,2.41,3.36,4.61,4.6,7.2l16.35-8.14c4.97-.67,9.2-2.06,13.94-3.72,12.14-4.25,25.44-9.57,36.05-16.92,2.56-1.78,8.68-6.26,8.48-9.57-.15-2.4-3.63-8.12-5.44-9.7-4.01-3.49-7-1.86-11.05,.22-13.3,6.82-25.63,15.56-39.43,21.69-3.24,1.44-11.95,4.98-15.27,4.37-3.31-.6-3.83-4.65-2.32-7.14,2.28-3.75,8.86-8.87,12.41-11.82,7.75-6.46,16.21-12.16,23.84-18.75,2.41-2.08,6.84-5.88,6.47-9.35-.42-3.99-6.85-10-10.92-9.88-3.81,.11-10.64,5.97-13.74,8.45-8.85,7.08-17.6,14.95-25.73,22.85-7.11,6.92-11.56,10.17-20.77,14.02-.74,.31-5.14,1.69-5.14,2.15h0Zm51.87,25.19c-1.03,.07-2,.43-2.95,.83l-15.24,7.67c-.69,.64,.02,2.2,.03,3.26,.05,5.89-5.82,9.46-11.25,8.15-1.11-.27-4.12-1.93-4.84-1.48-1.58,.98-2.51,3.06-1.72,4.8,2.12,4.65,5.24,4.81,9.81,4.98,7.94,.3,20.34-5.15,27.77-8.46,1.4-.62,5.1-2.08,6.08-2.93,3.65-3.15-.14-12.48-3.05-15.19-1.5-1.39-2.66-1.74-4.64-1.62h0Zm1.64,43.36c-3.51,.06-6.87,1.36-10.33,1.83-5.16,.71-13.49-2.2-14.88-7.73-.61-2.44,.73-4.3,1.31-6.54-3.72,.03-9.75,.4-12.85-1.87-1.7-1.24-4.3-5.51-4.05-7.66,.04-.3,.56-2.15,.64-2.25l2.13-2.65-7.11-6.55c-1.65,5.84-6.58,10.31-12.13,12.48-1.87,.73-5.01,1.5-3.46-1.68,5.37-1.77,10.79-5.26,12.69-10.88,2.15-6.37-2.66-5.4-6.71-7.22-1.13-.51-4.47-2.24-4.6-3.4-.11-1.01,1-1.93,1.89-1.45,1.11,.6,2.24,1.59,3.51,2.18,2.13,.98,4.95,1.03,6.83,2.45,1.74,1.32,3.32,4.53,4.88,6.34,3.34,3.9,11.68,11.27,17.07,7.59,6.43-4.39-1.05-12.73-3.73-17.15-2.48-4.09-4.69-8.52-7.39-12.45-.88-1.27-2.6-3.86-3.7-4.74-.86-.68-4.46-1.85-5.7-2.26-7.87-2.63-20.82-4.85-27.45,1.39-6.67,6.28-12.09,17.04-9.88,26.31,1.54,6.44,4.72,9.44,9.28,13.8,7.35,7.04,3.64,17.32,12.58,25.29,8.88,7.91,29.63,6.49,40.28,3.19,2.13-.66,4.02-1.86,6.14-2.33,1.95-.43,11.84-.39,12.5-1.22l2.26-2.82h0Zm-.94-2.89c4.62-.86,8.16-.02,8.99-6.03,.58-4.15-1.6-9.06-5.19-11.29-1.07-.66-2.03-.58-3.15-.25-3.48,1.03-7.57,3.05-11.06,4.4-4.25,1.65-7.78,1.77-10.42,6.03-2.92,4.7,2.93,7.86,6.75,8.89,3.53,.95,10.26-1.05,14.08-1.76h0Z"/>
    <path class="cls-1" d="M114.51,338.29l-2.26,2.82c-.66,.83-10.55,.79-12.5,1.22-2.12,.46-4.02,1.66-6.14,2.33-10.66,3.31-31.41,4.73-40.28-3.19-8.94-7.97-5.23-18.25-12.58-25.29-4.55-4.36-7.74-7.35-9.28-13.8-2.21-9.28,3.22-20.03,9.88-26.31,6.63-6.24,19.58-4.02,27.45-1.39,1.24,.41,4.85,1.58,5.7,2.26,1.11,.88,2.83,3.48,3.7,4.74,2.71,3.93,4.92,8.36,7.39,12.45,2.68,4.42,10.15,12.76,3.73,17.15-5.39,3.68-13.73-3.69-17.07-7.59-1.55-1.81-3.14-5.02-4.88-6.34-1.87-1.42-4.69-1.47-6.83-2.45-1.27-.58-2.41-1.58-3.51-2.18-.89-.48-2,.44-1.89,1.45,.13,1.16,3.47,2.89,4.6,3.4,4.05,1.81,8.86,.84,6.71,7.22-1.9,5.62-7.32,9.11-12.69,10.88-1.54,3.18,1.59,2.41,3.46,1.68,5.55-2.17,10.48-6.64,12.13-12.48l7.11,6.55-2.13,2.65c-.09,.11-.61,1.96-.64,2.25-.25,2.15,2.35,6.42,4.05,7.66,3.11,2.27,9.13,1.91,12.85,1.87-.58,2.23-1.92,4.1-1.31,6.54,1.39,5.53,9.72,8.44,14.88,7.73,3.45-.47,6.82-1.77,10.33-1.83h0Z"/>
    <path class="cls-1" d="M61.01,269.76c0-.45,4.4-1.84,5.14-2.15,9.21-3.85,13.65-7.09,20.77-14.02,8.13-7.91,16.88-15.77,25.73-22.85,3.1-2.48,9.93-8.34,13.74-8.45,4.07-.12,10.5,5.89,10.92,9.88,.37,3.47-4.07,7.27-6.47,9.35-7.62,6.58-16.08,12.29-23.84,18.75-3.54,2.95-10.13,8.07-12.41,11.82-1.51,2.49-.99,6.53,2.32,7.14,3.32,.6,12.03-2.93,15.27-4.37,13.8-6.12,26.13-14.86,39.43-21.69,4.05-2.08,7.04-3.7,11.05-.22,1.81,1.58,5.29,7.29,5.44,9.7,.21,3.31-5.92,7.8-8.48,9.57-10.61,7.35-23.92,12.67-36.05,16.92-4.74,1.66-8.98,3.05-13.94,3.72l-16.35,8.14c-1.24-2.59-3.1-4.79-4.6-7.2-3.23-5.2-6.09-11.3-9.87-16.08-2.71-3.43-4.11-3.94-8.07-5.34-3.16-1.12-6.46-1.89-9.72-2.62h0Z"/>
    <path class="cls-1" d="M112.89,294.95c1.98-.12,3.14,.23,4.64,1.62,2.91,2.71,6.7,12.04,3.05,15.19-.98,.85-4.67,2.31-6.08,2.93-7.42,3.3-19.83,8.76-27.77,8.46-4.58-.17-7.69-.33-9.81-4.98-.79-1.73,.15-3.82,1.72-4.8,.71-.44,3.72,1.21,4.84,1.48,5.43,1.31,11.3-2.25,11.25-8.15-.01-1.05-.72-2.62-.03-3.26l15.24-7.67c.95-.39,1.92-.76,2.95-.83h0Z"/>
    <path class="cls-1" d="M113.57,335.41c-3.82,.71-10.55,2.71-14.08,1.76-3.82-1.03-9.66-4.18-6.75-8.89,2.64-4.27,6.17-4.39,10.42-6.03,3.49-1.35,7.58-3.37,11.06-4.4,1.12-.33,2.08-.41,3.15,.25,3.59,2.23,5.78,7.13,5.19,11.29-.84,6-4.38,5.17-8.99,6.03h0Z"/>
  </g>
  <g>
    <path d="M341.56,276.58l.47-.35c.03-.36-.06-.73-.2-1.07-.63-1.57-2.31-3.92-3.32-5.38-5.94-8.67-13.47-16.45-19.43-24.94-6.67-9.5-8.9-17.03,3.46-22.68,9.55-4.36,15.55,6.08,20.09,12.74,4.85,7.11,9.7,14.25,14.6,21.34,2.42,3.51,4.65,6.95,8,9.68,.59,.34,.21-.93,.13-1.13-.79-1.9-1.85-3.13-2.53-5.32-2.32-7.46-.2-15.77,6.38-20.34,8-5.55,13.05-1.03,15.23,7.27,.88,3.36,.75,6.5,1.25,9.77,.97,6.36,4.76,15.05,7.43,21,5.16,11.49,13.34,22.29,7.34,35.19-2.77,5.96-5.89,8.05-11.03,11.7-4.51,3.21-4.43,7.8-6.89,12.23-8.62,15.55-27.62,13.68-41.97,8.64-4.58-1.61-6.82-3.14-10.84-5.57-4.92-2.98-13.77-5.46-19.51-5.7-8.4-.35-17.11,1.01-25.51-.1-6.85-.9-9.72-5.76-8.56-12.42,.9-5.19,3.32-8.98,9.08-9.03,6.5-.05,13.73,1.6,20.34,1.54l6.14,.11c.06-.21-.73-.49-.93-.58-8.58-3.9-17.45-7.2-26-11.25-4.34-2.06-13.62-5.79-15.97-9.72-5.04-8.46,5.46-21.02,14.72-18.11,11.96,6.12,23.82,13.39,36.24,18.52,.75,.31,2.76,1.23,3.38,1.34,.29,.06,.36-.03,.59-.18l-1.35-1.73c-10.79-9.64-22.96-18.24-33.77-27.77-6.96-6.14-12.02-11.36-4.8-19.72,8.14-9.43,14.36-4.59,21.79,1.79,11.86,10.17,22.65,21.9,35.93,30.25h0Zm22.31,6.01c.68-2.13,1.61-4.21,2.68-6.17,.39-.72,2.24-2.93,1.8-3.67-2.63-1.96-5.45-3.86-7.77-6.19-3.06-3.08-4.87-6.58-7.31-10.09-2.24-3.21-4.66-6.33-6.88-9.54-4.15-6.01-8.1-13.16-13.03-18.5-2.93-3.17-5.41-4.84-9.69-2.82-9.54,4.5-6.82,9.79-1.78,16.94,5.21,7.39,11.72,14.33,17.11,21.71,1.96,2.68,6.22,8.3,6.67,11.36,.43,2.89-2.36,5.21-5.1,4.43-1.81-.51-5.67-3.44-7.31-4.66-11.09-8.28-20.67-18.53-31.25-27.41-6.07-5.1-10.26-8.1-16.15-.13-1.61,2.18-2.73,3.79-1.35,6.46,2.73,5.29,11.25,10.86,15.93,14.73,8.25,6.81,16.38,13.78,24.68,20.53,2.64,2.33,3.93,6.71-.29,8.12-1.57,.53-7.13-2.03-8.83-2.78-11.54-5.09-22.48-11.54-33.65-17.37-6.09-2.13-14.73,8.13-9.53,13.91,1.83,2.03,10.28,5.65,13.21,7.04,10.88,5.18,22.09,10.21,33.57,13.87,1.21,.81,1.28,2.13,.66,3.33-1.05,2.01-2.7,1.81-4.67,1.9-9.86,.48-20.52-1.48-30.41-1.84-5.11-.52-6.6,7.95-4.92,11.28,1.26,2.5,2.83,2.67,5.31,2.97,8.49,1.01,16.94-.34,25.37,.09,5.71,.29,12.01,2.14,17.24,4.44,4.27,1.88,7.18,4.55,11.8,6.32,10.03,3.85,26.49,7.08,35.26-.85,6.4-5.78,5.29-13.97,12.11-18.81,4.88-3.47,8.4-5.88,10.52-11.83,3.64-10.22-2.36-18.36-6.47-27.27-3.33-7.2-7.19-15.84-8.86-23.56-.99-4.56-.72-15.19-5.18-17.74-3.56-2.04-8.75,3.27-10.34,6.18-4.85,8.89,2.67,15.3,3.88,23.38,.7,4.7-1.83,6.3-3.57,10.22-4.58,10.36-2.37,27.43,5.47,35.72,1.04,1.1,5.12,3.36,2.41,4.53-1.01,.44-3.12-1.63-3.86-2.38-8.18-8.33-10.97-24.88-7.48-35.82h0Z"/>
    <path class="cls-1" d="M363.86,282.58c.68-2.13,1.61-4.21,2.68-6.17,.39-.72,2.24-2.93,1.8-3.67-2.63-1.96-5.45-3.86-7.77-6.19-3.06-3.08-4.87-6.58-7.31-10.09-2.24-3.22-4.66-6.33-6.88-9.54-4.15-6.01-8.1-13.16-13.03-18.5-2.93-3.17-5.42-4.84-9.69-2.82-9.54,4.5-6.82,9.79-1.78,16.94,5.21,7.39,11.73,14.32,17.11,21.71,1.96,2.68,6.22,8.3,6.67,11.36,.43,2.89-2.36,5.21-5.1,4.43-1.81-.51-5.67-3.44-7.31-4.66-11.09-8.28-20.67-18.52-31.25-27.41-6.07-5.1-10.26-8.1-16.15-.13-1.62,2.18-2.73,3.79-1.35,6.46,2.73,5.28,11.25,10.87,15.93,14.73,8.25,6.81,16.38,13.78,24.68,20.53,2.64,2.33,3.93,6.7-.29,8.12-1.57,.53-7.13-2.03-8.83-2.78-11.54-5.09-22.48-11.54-33.65-17.37-6.09-2.13-14.73,8.13-9.53,13.91,1.83,2.04,10.28,5.65,13.21,7.04,10.88,5.18,22.09,10.21,33.57,13.87,1.2,.81,1.28,2.13,.66,3.33-1.04,2.01-2.7,1.8-4.67,1.9-9.86,.48-20.52-1.48-30.41-1.84-5.11-.52-6.6,7.95-4.92,11.28,1.26,2.51,2.83,2.67,5.31,2.97,8.49,1.01,16.94-.34,25.37,.09,5.71,.29,12.01,2.14,17.24,4.44,4.27,1.87,7.19,4.55,11.8,6.32,10.03,3.85,26.49,7.08,35.26-.85,6.4-5.78,5.29-13.97,12.11-18.81,4.88-3.47,8.4-5.88,10.52-11.83,3.64-10.22-2.36-18.36-6.47-27.27-3.33-7.2-7.19-15.84-8.86-23.56-.99-4.56-.72-15.19-5.18-17.74-3.56-2.04-8.75,3.27-10.34,6.18-4.85,8.9,2.67,15.3,3.88,23.38,.69,4.7-1.83,6.3-3.57,10.22-4.58,10.36-2.37,27.43,5.47,35.72,1.04,1.1,5.12,3.36,2.41,4.53-1.01,.44-3.12-1.63-3.86-2.38-8.17-8.33-10.97-24.88-7.48-35.82h0Z"/>
  </g>
  <g>
    <circle class="cls-5" cx="65.17" cy="128.45" r="14.86"/>
    <circle class="cls-5" cx="105.67" cy="125.28" r="7.43"/>
    <circle class="cls-5" cx="123.13" cy="161.26" r="7.43"/>
    <circle class="cls-5" cx="94.59" cy="159.31" r="4.63"/>
  </g>
  <g>
    <circle class="cls-5" cx="213.47" cy="405.64" r="14.86"/>
    <circle class="cls-5" cx="190.47" cy="372.15" r="7.43"/>
    <circle class="cls-5" cx="212.9" cy="339.04" r="7.43"/>
    <circle class="cls-5" cx="225.48" cy="364.73" r="4.63"/>
  </g>
  <g>
    <circle class="cls-5" cx="379.89" cy="137.95" r="14.86"/>
    <circle class="cls-5" cx="362.39" cy="174.6" r="7.43"/>
    <circle class="cls-5" cx="322.5" cy="171.74" r="7.43"/>
    <circle class="cls-5" cx="338.46" cy="147.99" r="4.63"/>
  </g>
</svg>