<?xml version="1.0" encoding="utf-8"?>
<!-- Generator: Adobe Illustrator 27.0.0, SVG Export Plug-In . SVG Version: 6.00 Build 0)  -->
<svg version="1.1" id="Layer_1" xmlns="http://www.w3.org/2000/svg" xmlns:xlink="http://www.w3.org/1999/xlink" x="0px" y="0px"
	 viewBox="0 0 175.2 142.2" style="enable-background:new 0 0 175.2 142.2;" xml:space="preserve">
<style type="text/css">
	.st0{stroke:#221F1F;stroke-width:0.8091;stroke-miterlimit:10;}
	.st1{fill:#F9D8C1;}
</style>
<path class="st0" d="M170.8,81.5c-4.1,12.9-12.4,12.3-23.3,7.7c-13-5.4-25.4-12.9-38.6-18.3c-2.2-0.9-7.3-3.2-9.4-3.2
	c-1.9,0-0.6,1.4,0,2.2c2.6,3.7,7.7,7.8,11.2,10.7c12.6,10.2,26.7,18.1,39.6,27.7c5.2,3.8,9.2,7.3,7.9,14.5
	c-0.8,4.6-5.3,11.9-9.2,14.6c-6.5,4.5-18.4-3.1-24.1-6.7c-12.8-8.3-23.7-18.6-34.6-29.2c-1.7,2.3-3.1,4.9-5,7
	c-3.4,3.7-9.5,7.4-14.7,5.5c-0.7-0.2-1.9-1.4-2.5-1.2c-1.5,3.8-3.6,7.2-6.9,9.6c-3.9,2.8-9.6,4.5-14.1,2.2c-1.2-0.6-2.3-2.1-3.1-2.5
	c-2.1-0.9-5.5-1.1-7.9-2.1c-4.3-1.9-6.6-10-9.6-13.6c-1.3-1.6-3.3-2.9-4.8-4.5C10.5,90.1-2.1,66.8,5.1,50.4c3.5-8,8-10.1,14-15.2
	c4.3-3.7,4.7-10.6,7.5-15.7c8.7-16.2,27.7-19.3,44-13.2c7.2,2.7,8.7,6.6,13.1,12C89.4,25.4,97,32.4,105,37c6.3,3.6,13,5.1,19.7,7.6
	c11.2,4.2,23.7,9.5,34.3,15C169.3,64.9,174.9,68.8,170.8,81.5L170.8,81.5L170.8,81.5z M85.4,27.5c0.9,3.7,1.8,7.5,2.2,11.3
	c0.5,4.8,0.7,6.5-1.4,11c-3,6.3-7.8,12.3-11.5,18.2c-1.7,2.8-3,5.8-5.1,8.3l16.5,12.7c3.2,4.8,6.7,8.4,10.8,12.4
	c10.4,10.3,22.6,21.3,35.4,28.5c3.1,1.7,10.8,5.8,14.1,3.9c2.4-1.4,6.5-7.8,7.2-10.4c1.6-5.9-1.6-8.1-5.8-11.2
	c-13.7-10.2-28.8-18.5-42-29.5c-3.1-2.6-11.1-9.8-12.1-13.5c-1-3.7,2.8-6.3,6.2-6c5,0.5,13.5,4.6,18.3,6.8
	c10.5,4.7,20.6,10.5,31.2,15c3.3,1.4,9.5,4.1,12.8,2c3.9-2.4,6.8-12,4.6-16.1c-2-3.9-11.5-7.9-15.6-9.8
	c-11.7-5.5-24.2-10.6-36.3-14.9c-10.7-3.8-16.2-6.8-24.8-14.3C89.5,31.1,85.8,27.3,85.4,27.5L85.4,27.5L85.4,27.5z M85.5,93.3
	c-0.6-1-1.4-1.8-2.3-2.6L67.7,79c-1-0.4-2.3,1.1-3.3,1.7c-6,3-12.6-1.2-14-7.4c-0.3-1.3-0.1-5.2-0.9-5.7c-1.8-1.1-4.4-1-5.8,0.6
	c-3.7,4.5-2.3,7.8-0.2,12.6c3.7,8.3,15.5,18.3,22.6,24.2c1.3,1.1,4.7,4.2,6.1,4.8c5.1,2.2,12.7-6.4,14-10.7
	C86.9,96.7,86.7,95.3,85.5,93.3L85.5,93.3L85.5,93.3z M41.9,116.7c-1.8-3.6-4.8-6.4-7.1-9.7c-3.3-4.9-4.5-14.9,0.5-19.1
	c2.2-1.9,4.8-1.4,7.4-1.9c-1.9-3.8-5.3-9.8-4.5-14.1c0.4-2.4,3.5-7.2,5.8-8c0.3-0.1,2.5-0.5,2.6-0.5l3.8,0.9l3.2-10.6
	c-6.8,1.2-13.9-1.6-18.9-6.2c-1.7-1.6-4.1-4.4,0-4.4c4.5,4.6,10.8,8.4,17.5,7.6c7.6-1,4.2-5.4,4-10.5c0-1.4,0.1-5.7,1.2-6.4
	c1-0.6,2.5,0.1,2.4,1.2c-0.1,1.4-0.5,3.1-0.5,4.7c0.1,2.7,1.4,5.6,0.9,8.2c-0.5,2.4-3,5.7-4.1,8.2c-2.3,5.4-5.7,17.6,0.8,21.3
	c7.7,4.4,12.5-7.5,15.7-12.4c2.9-4.6,6.4-9.1,9.1-13.8c0.9-1.5,2.7-4.6,3-6.2c0.3-1.2-0.3-5.5-0.5-7c-1.3-9.4-5.5-23.8-15.2-27.4
	c-9.8-3.7-23.5-3.9-31.9,3.1c-5.8,4.8-7.3,9.6-9.5,16.4C24.1,41.1,11.7,42.5,8,55.6c-3.7,13.1,8.2,33.6,16.9,42.9
	c1.7,1.9,3.9,3.2,5.5,5.1c1.4,1.8,6.3,11.9,7.5,12.2L41.9,116.7L41.9,116.7L41.9,116.7z M44.4,114.3c3.2,4.3,4.1,8.3,10.7,6.2
	c4.6-1.5,8.5-6.2,9-11c0.1-1.4-0.4-2.4-1.3-3.3c-2.8-3.1-6.9-6.2-10.1-9.1c-3.8-3.5-5.7-7.1-11.4-7.7c-6.3-0.6-6.6,6.9-5.7,11.4
	C36.3,104.9,41.8,110.8,44.4,114.3L44.4,114.3L44.4,114.3z"/>
<path class="st1" d="M41.9,116.7l-4-0.9c-1.2-0.3-6.1-10.4-7.5-12.2c-1.5-1.9-3.7-3.3-5.5-5.1C16.2,89.2,4.3,68.7,8,55.6
	C11.7,42.5,24.1,41.1,27.6,30c2.2-6.9,3.7-11.6,9.5-16.4c8.4-6.9,22.1-6.8,31.9-3.1c9.7,3.7,13.9,18,15.2,27.4
	c0.2,1.5,0.8,5.8,0.5,7c-0.3,1.6-2.1,4.6-3,6.2c-2.7,4.7-6.1,9.2-9.1,13.8c-3.2,5-8,16.8-15.7,12.4c-6.5-3.7-3.1-15.9-0.8-21.3
	c1.1-2.5,3.6-5.7,4.1-8.2c0.5-2.6-0.9-5.5-0.9-8.2c0-1.6,0.4-3.3,0.5-4.7c0-1.2-1.5-1.8-2.4-1.2c-1.1,0.7-1.2,5-1.2,6.4
	c0.2,5.1,3.6,9.5-4,10.5c-6.7,0.9-13-2.9-17.5-7.6c-4,0-1.7,2.8,0,4.4c5,4.6,12.1,7.4,18.9,6.2l-3.2,10.6l-3.8-0.9
	c-0.2,0-2.3,0.4-2.6,0.5c-2.3,0.8-5.4,5.6-5.8,8c-0.8,4.3,2.6,10.3,4.5,14.1c-2.6,0.5-5.2,0.1-7.4,1.9c-5,4.2-3.8,14.2-0.5,19.1
	C37,110.4,40.1,113.2,41.9,116.7L41.9,116.7L41.9,116.7z"/>
<path class="st1" d="M85.4,27.5c0.5-0.2,4.1,3.6,4.8,4.2c8.6,7.5,14.1,10.4,24.8,14.3c12.2,4.4,24.6,9.4,36.3,14.9
	c4.1,1.9,13.5,6,15.6,9.8c2.2,4.1-0.8,13.7-4.6,16.1c-3.4,2.1-9.5-0.5-12.8-2c-10.6-4.5-20.7-10.3-31.2-15
	c-4.8-2.2-13.3-6.3-18.3-6.8c-3.3-0.3-7.2,2.3-6.2,6c1,3.7,9,10.9,12.1,13.5c13.2,11.1,28.3,19.3,42,29.5c4.2,3.1,7.3,5.4,5.8,11.2
	c-0.7,2.6-4.8,9.1-7.2,10.4c-3.3,1.9-11-2.2-14.1-3.9c-12.9-7.2-25-18.2-35.4-28.5c-4.1-4-7.6-7.7-10.8-12.4L69.5,76.3
	c2-2.6,3.4-5.6,5.1-8.3C78.3,62,83.1,56,86.1,49.8c2.2-4.5,2-6.2,1.4-11C87.1,35,86.2,31.2,85.4,27.5L85.4,27.5L85.4,27.5z"/>
<path class="st1" d="M85.6,93.3c1.1,2,1.3,3.3,0.7,5.6c-1.3,4.3-9,12.9-14,10.7c-1.4-0.6-4.7-3.6-6.1-4.8C59,98.9,47.2,89,43.5,80.7
	c-2.1-4.8-3.5-8,0.2-12.6c1.4-1.7,4-1.8,5.8-0.6c0.8,0.5,0.6,4.4,0.9,5.7c1.4,6.2,8,10.5,14,7.4c1.1-0.5,2.3-2,3.3-1.7l15.5,11.8
	C84.1,91.5,85,92.3,85.6,93.3L85.6,93.3L85.6,93.3z"/>
<path class="st1" d="M44.4,114.3c-2.6-3.6-8.1-9.5-8.9-13.5c-0.9-4.4-0.6-12,5.7-11.4c5.7,0.6,7.6,4.1,11.4,7.7
	c3.1,2.9,7.2,6.1,10.1,9.1c0.9,1,1.5,1.9,1.3,3.3c-0.5,4.8-4.4,9.5-9,11C48.5,122.7,47.6,118.6,44.4,114.3L44.4,114.3L44.4,114.3z"
	/>
</svg>
