<?xml version="1.0" encoding="UTF-8"?>
<svg id="Layer_1" data-name="Layer 1" xmlns="http://www.w3.org/2000/svg" viewBox="0 0 157.58 126.31">
  <defs>
    <style>
      .cls-1 {
        stroke: #221f1f;
        stroke-miterlimit: 10;
        stroke-width: .75px;
      }

      .cls-2 {
        fill: #f9d8c1;
      }
    </style>
  </defs>
  <path class="cls-1" d="M155.97,72.79c-3.81,11.95-11.48,11.38-21.57,7.15-12.03-5.05-23.56-12-35.77-16.97-2.02-.82-6.79-2.93-8.73-2.93-1.72,0-.6,1.26-.04,2.07,2.38,3.41,7.12,7.27,10.4,9.92,11.68,9.44,24.76,16.78,36.74,25.67,4.8,3.56,8.5,6.75,7.33,13.41-.76,4.31-4.91,11.01-8.53,13.53-5.99,4.18-17.1-2.85-22.35-6.23-11.91-7.66-21.95-17.27-32.06-27.06-1.59,2.16-2.83,4.5-4.64,6.48-3.16,3.46-8.84,6.86-13.64,5.07-.61-.23-1.79-1.31-2.28-1.11-1.35,3.53-3.3,6.68-6.39,8.92-3.58,2.59-8.89,4.15-13.05,2.03-1.08-.55-2.12-1.97-2.84-2.28-1.99-.85-5.07-.98-7.34-1.96-4.03-1.74-6.13-9.23-8.86-12.64-1.21-1.5-3.07-2.67-4.49-4.15C7.35,80.77-4.33,59.17,2.33,43.98c3.25-7.42,7.44-9.32,13-14.12,4.02-3.47,4.4-9.84,6.91-14.54C30.27,.3,47.89-2.59,62.98,3.06c6.7,2.51,8.02,6.11,12.13,11.15,5.35,6.56,12.43,13.12,19.79,17.37,5.83,3.37,12.03,4.73,18.28,7.07,10.37,3.88,21.94,8.84,31.79,13.86,9.58,4.88,14.76,8.49,11,20.29h0ZM76.73,22.79c.82,3.44,1.63,6.93,2.03,10.45,.5,4.42,.67,5.99-1.32,10.16-2.79,5.81-7.26,11.37-10.69,16.85-1.59,2.55-2.82,5.34-4.7,7.72l15.33,11.75c2.94,4.41,6.23,7.79,10.01,11.52,9.68,9.55,20.92,19.72,32.83,26.39,2.88,1.6,9.99,5.34,13.04,3.61,2.22-1.26,6.03-7.23,6.68-9.68,1.45-5.43-1.48-7.51-5.34-10.4-12.67-9.47-26.7-17.12-38.93-27.38-2.87-2.41-10.29-9.05-11.25-12.48-.97-3.43,2.64-5.8,5.71-5.52,4.62,.42,12.55,4.3,17,6.3,9.74,4.36,19.09,9.75,28.9,13.94,3.09,1.32,8.76,3.77,11.89,1.81,3.6-2.26,6.31-11.16,4.31-14.97-1.88-3.57-10.62-7.33-14.42-9.12-10.84-5.12-22.39-9.78-33.68-13.83-9.88-3.54-15.04-6.26-22.97-13.22-.63-.56-3.99-4.1-4.43-3.89h0Zm.17,60.99c-.54-.95-1.34-1.7-2.15-2.41l-14.37-10.91c-.93-.36-2.09,1.05-3.08,1.54-5.58,2.79-11.7-1.14-12.97-6.9-.26-1.18-.09-4.81-.84-5.29-1.66-1.05-4.08-.96-5.36,.59-3.44,4.18-2.14,7.21-.17,11.64,3.41,7.68,14.35,16.93,20.95,22.46,1.24,1.04,4.35,3.87,5.61,4.41,4.69,2,11.8-5.93,13.01-9.96,.63-2.07,.42-3.34-.62-5.16h0Zm-40.44,21.71c-1.69-3.3-4.49-5.9-6.54-8.96-3.07-4.57-4.18-13.84,.43-17.73,2.03-1.72,4.43-1.31,6.82-1.79-1.76-3.52-4.91-9.07-4.19-13.08,.39-2.19,3.23-6.64,5.4-7.41,.3-.1,2.3-.47,2.44-.44l3.51,.79,2.92-9.8c-6.31,1.14-12.86-1.46-17.5-5.72-1.57-1.44-3.76-4.06-.02-4.07,4.18,4.28,10.02,7.81,16.24,7,7.06-.92,3.9-5.04,3.74-9.73-.04-1.31,.05-5.29,1.09-5.95,.91-.58,2.3,.05,2.26,1.12-.05,1.33-.47,2.87-.44,4.35,.06,2.48,1.33,5.18,.85,7.62-.45,2.27-2.76,5.26-3.76,7.58-2.15,4.98-5.28,16.34,.73,19.74,7.16,4.07,11.61-6.92,14.57-11.52,2.73-4.26,5.92-8.41,8.39-12.81,.8-1.42,2.46-4.26,2.79-5.73,.25-1.13-.32-5.1-.5-6.47-1.16-8.7-5.07-22.04-14.08-25.44-9.07-3.42-21.81-3.57-29.6,2.84-5.41,4.46-6.77,8.88-8.8,15.23-3.28,10.26-14.76,11.51-18.18,23.71-3.39,12.11,7.6,31.17,15.7,39.76,1.61,1.72,3.64,2.95,5.06,4.75,1.31,1.65,5.88,11.07,6.97,11.31l3.73,.84h0Zm2.31-2.23c2.96,3.99,3.81,7.74,9.91,5.75,4.22-1.38,7.87-5.74,8.31-10.18,.13-1.32-.39-2.19-1.23-3.1-2.6-2.83-6.42-5.78-9.32-8.47-3.54-3.27-5.3-6.57-10.58-7.1-5.82-.59-6.1,6.44-5.31,10.54,.74,3.79,5.76,9.26,8.21,12.56h0Z"/>
  <path class="cls-2" d="M36.47,105.48l-3.73-.84c-1.09-.24-5.66-9.65-6.97-11.31-1.42-1.8-3.45-3.04-5.06-4.75C12.61,79.99,1.61,60.93,5,48.82c3.42-12.2,14.91-13.45,18.18-23.71,2.03-6.35,3.39-10.78,8.8-15.23,7.79-6.41,20.53-6.26,29.6-2.84,9.01,3.4,12.92,16.73,14.08,25.44,.18,1.37,.75,5.34,.5,6.47-.32,1.47-1.99,4.31-2.79,5.73-2.47,4.4-5.65,8.55-8.39,12.81-2.96,4.6-7.4,15.58-14.57,11.52-6-3.41-2.88-14.77-.73-19.74,1-2.32,3.31-5.32,3.76-7.58,.48-2.44-.79-5.14-.85-7.62-.03-1.47,.39-3.02,.44-4.35,.04-1.07-1.35-1.69-2.26-1.12-1.05,.66-1.14,4.64-1.09,5.95,.16,4.69,3.32,8.81-3.74,9.73-6.22,.81-12.06-2.72-16.24-7-3.74,.01-1.55,2.63,.02,4.07,4.64,4.26,11.18,6.87,17.5,5.72l-2.92,9.8-3.51-.79c-.14-.03-2.14,.33-2.44,.44-2.16,.77-5,5.22-5.4,7.41-.72,4.01,2.43,9.56,4.19,13.08-2.39,.49-4.79,.08-6.82,1.79-4.61,3.89-3.5,13.16-.43,17.73,2.05,3.06,4.85,5.66,6.54,8.96h0Z"/>
  <path class="cls-2" d="M76.73,22.8c.44-.21,3.79,3.33,4.43,3.89,7.93,6.96,13.09,9.68,22.97,13.22,11.29,4.05,22.83,8.71,33.68,13.83,3.8,1.79,12.54,5.56,14.42,9.12,2,3.81-.71,12.71-4.31,14.97-3.13,1.97-8.79-.49-11.89-1.81-9.8-4.18-19.16-9.57-28.9-13.94-4.45-2-12.37-5.87-17-6.3-3.07-.28-6.67,2.09-5.71,5.52,.97,3.43,8.38,10.07,11.25,12.48,12.23,10.27,26.27,17.92,38.93,27.38,3.86,2.88,6.78,4.97,5.34,10.4-.66,2.45-4.47,8.42-6.68,9.68-3.05,1.73-10.16-2-13.04-3.61-11.92-6.67-23.16-16.84-32.83-26.39-3.79-3.74-7.07-7.12-10.01-11.52l-15.33-11.75c1.88-2.38,3.11-5.18,4.7-7.72,3.44-5.48,7.91-11.04,10.69-16.85,2-4.17,1.83-5.74,1.32-10.16-.4-3.52-1.21-7.02-2.03-10.45h0Z"/>
  <path class="cls-2" d="M76.91,83.8c1.04,1.82,1.24,3.09,.62,5.16-1.22,4.03-8.33,11.96-13.01,9.96-1.26-.54-4.36-3.37-5.61-4.41-6.59-5.52-17.54-14.77-20.95-22.45-1.97-4.43-3.26-7.46,.17-11.64,1.28-1.56,3.7-1.64,5.36-.59,.75,.47,.58,4.1,.84,5.29,1.28,5.77,7.4,9.69,12.97,6.9,.99-.5,2.15-1.9,3.08-1.54l14.37,10.91c.81,.72,1.62,1.47,2.15,2.41h0Z"/>
  <path class="cls-2" d="M38.77,103.25c-2.45-3.3-7.48-8.77-8.21-12.56-.8-4.1-.51-11.12,5.31-10.54,5.28,.53,7.04,3.83,10.58,7.1,2.9,2.69,6.72,5.64,9.32,8.47,.84,.91,1.36,1.78,1.23,3.1-.45,4.45-4.09,8.8-8.31,10.18-6.09,1.99-6.95-1.76-9.91-5.75h0Z"/>
</svg>